<?xml version="1.0" encoding="UTF-8" standalone="no"?>
<!DOCTYPE svg PUBLIC "-//W3C//DTD SVG 1.1//EN"
 "http://www.w3.org/Graphics/SVG/1.1/DTD/svg11.dtd">
<!-- Generated by graphviz version 14.1.0 (20251206.1807)
 -->
<!-- Title: EISV_Knowledge Pages: 1 -->
<svg width="1865pt" height="816pt"
 viewBox="0.00 0.00 1865.00 816.00" xmlns="http://www.w3.org/2000/svg" xmlns:xlink="http://www.w3.org/1999/xlink">
<g id="graph0" class="graph" transform="scale(1 1) rotate(0) translate(4 812.42)">
<title>EISV_Knowledge</title>
<polygon fill="white" stroke="none" points="-4,4 -4,-812.42 1861,-812.42 1861,4 -4,4"/>
<g id="clust1" class="cluster">
<title>cluster_legend</title>
<polygon fill="lightgrey" stroke="lightgrey" points="8,-687.32 8,-763.82 464,-763.82 464,-687.32 8,-687.32"/>
<text xml:space="preserve" text-anchor="middle" x="236" y="-746.52" font-family="Times,serif" font-size="14.00">Legend</text>
</g>
<g id="clust2" class="cluster">
<title>cluster_metrics</title>
<polygon fill="lightgrey" stroke="lightgrey" points="1165,-295.09 1165,-375.09 1849,-375.09 1849,-295.09 1165,-295.09"/>
<text xml:space="preserve" text-anchor="middle" x="1507" y="-357.79" font-family="Times,serif" font-size="14.00">EISV Metrics</text>
</g>
<g id="clust3" class="cluster">
<title>cluster_options</title>
<polygon fill="lightgrey" stroke="lightgrey" points="350,-27.73 350,-186.98 963,-186.98 963,-27.73 350,-27.73"/>
<text xml:space="preserve" text-anchor="middle" x="656.5" y="-169.68" font-family="Times,serif" font-size="14.00">Paths Forward</text>
</g>
<!-- hypothesis -->
<g id="node1" class="node">
<title>hypothesis</title>
<polygon fill="lightyellow" stroke="black" points="98.38,-731.32 15.62,-731.32 15.62,-695.32 98.38,-695.32 98.38,-731.32"/>
<text xml:space="preserve" text-anchor="middle" x="57" y="-707.89" font-family="Arial" font-size="14.00">Hypothesis</text>
</g>
<!-- experiment -->
<g id="node2" class="node">
<title>experiment</title>
<polygon fill="lightblue" stroke="black" points="201.5,-731.32 116.5,-731.32 116.5,-695.32 201.5,-695.32 201.5,-731.32"/>
<text xml:space="preserve" text-anchor="middle" x="159" y="-707.89" font-family="Arial" font-size="14.00">Experiment</text>
</g>
<!-- discovery -->
<g id="node3" class="node">
<title>discovery</title>
<polygon fill="lightgreen" stroke="black" points="294.62,-731.32 219.38,-731.32 219.38,-695.32 294.62,-695.32 294.62,-731.32"/>
<text xml:space="preserve" text-anchor="middle" x="257" y="-707.89" font-family="Arial" font-size="14.00">Discovery</text>
</g>
<!-- rejected -->
<g id="node4" class="node">
<title>rejected</title>
<polygon fill="salmon" stroke="black" points="381.62,-731.32 312.38,-731.32 312.38,-695.32 381.62,-695.32 381.62,-731.32"/>
<text xml:space="preserve" text-anchor="middle" x="347" y="-707.89" font-family="Arial" font-size="14.00">Rejected</text>
</g>
<!-- option -->
<g id="node5" class="node">
<title>option</title>
<polygon fill="lavender" stroke="black" points="456.25,-731.32 399.75,-731.32 399.75,-695.32 456.25,-695.32 456.25,-731.32"/>
<text xml:space="preserve" text-anchor="middle" x="428" y="-707.89" font-family="Arial" font-size="14.00">Option</text>
</g>
<!-- orig_hyp -->
<g id="node6" class="node">
<title>orig_hyp</title>
<ellipse fill="salmon" stroke="black" cx="569" cy="-713.32" rx="94.58" ry="95.11"/>
<text xml:space="preserve" text-anchor="middle" x="569" y="-763.27" font-family="Arial" font-size="14.00">Original Hypothesis</text>
<text xml:space="preserve" text-anchor="middle" x="569" y="-747.52" font-family="Arial" font-size="14.00">(REJECTED)</text>
<text xml:space="preserve" text-anchor="middle" x="569" y="-715.77" font-family="Arial" font-size="14.00">EISV measures</text>
<text xml:space="preserve" text-anchor="middle" x="569" y="-700.02" font-family="Arial" font-size="14.00">cognitive state</text>
<text xml:space="preserve" text-anchor="middle" x="569" y="-684.27" font-family="Arial" font-size="14.00">from text</text>
<text xml:space="preserve" text-anchor="middle" x="569" y="-652.52" font-family="Arial" font-size="14.00">R²=0.000</text>
</g>
<!-- val_study -->
<g id="node14" class="node">
<title>val_study</title>
<polygon fill="lightblue" stroke="black" points="491.38,-562.34 342.62,-562.34 342.62,-475.34 491.38,-475.34 491.38,-562.34"/>
<text xml:space="preserve" text-anchor="middle" x="417" y="-545.04" font-family="Arial" font-size="14.00">Validation Study</text>
<text xml:space="preserve" text-anchor="middle" x="417" y="-529.29" font-family="Arial" font-size="14.00">Phase 1</text>
<text xml:space="preserve" text-anchor="middle" x="417" y="-497.54" font-family="Arial" font-size="14.00">11 cognitive scenarios</text>
<text xml:space="preserve" text-anchor="middle" x="417" y="-481.79" font-family="Arial" font-size="14.00">Result: R²=0.000</text>
</g>
<!-- orig_hyp&#45;&gt;val_study -->
<g id="edge10" class="edge">
<title>orig_hyp&#45;&gt;val_study</title>
<path fill="none" stroke="black" d="M506.32,-641.8C494.81,-628.21 483.09,-613.93 472.5,-600.21 465.58,-591.25 458.5,-581.5 451.81,-571.98"/>
<polygon fill="black" stroke="black" points="454.71,-570.03 446.13,-563.82 448.96,-574.02 454.71,-570.03"/>
<text xml:space="preserve" text-anchor="middle" x="492.75" y="-590.71" font-family="Arial" font-size="10.00">tested by</text>
</g>
<!-- test1 -->
<g id="node15" class="node">
<title>test1</title>
<polygon fill="lightblue" stroke="black" points="1223.38,-570.21 1032.62,-570.21 1032.62,-467.46 1223.38,-467.46 1223.38,-570.21"/>
<text xml:space="preserve" text-anchor="middle" x="1128" y="-552.91" font-family="Arial" font-size="14.00">Test 1:</text>
<text xml:space="preserve" text-anchor="middle" x="1128" y="-537.16" font-family="Arial" font-size="14.00">Update Count Effect</text>
<text xml:space="preserve" text-anchor="middle" x="1128" y="-505.41" font-family="Arial" font-size="14.00">10 updates, constant params</text>
<text xml:space="preserve" text-anchor="middle" x="1128" y="-489.66" font-family="Arial" font-size="14.00">E: +5.3%, I: +11.5%</text>
<text xml:space="preserve" text-anchor="middle" x="1128" y="-473.91" font-family="Arial" font-size="14.00">S: &#45;61.9%</text>
</g>
<!-- orig_hyp&#45;&gt;test1 -->
<g id="edge12" class="edge">
<title>orig_hyp&#45;&gt;test1</title>
<path fill="none" stroke="black" stroke-dasharray="5,2" d="M658.5,-681.5C757.35,-647.46 916.41,-592.69 1021.57,-556.48"/>
<polygon fill="black" stroke="black" points="1022.47,-559.88 1030.78,-553.31 1020.19,-553.26 1022.47,-559.88"/>
<text xml:space="preserve" text-anchor="middle" x="935.26" y="-590.71" font-family="Arial" font-size="10.00">tested by</text>
</g>
<!-- test2 -->
<g id="node16" class="node">
<title>test2</title>
<polygon fill="lightblue" stroke="black" points="734.38,-570.21 591.62,-570.21 591.62,-467.46 734.38,-467.46 734.38,-570.21"/>
<text xml:space="preserve" text-anchor="middle" x="663" y="-552.91" font-family="Arial" font-size="14.00">Test 2:</text>
<text xml:space="preserve" text-anchor="middle" x="663" y="-537.16" font-family="Arial" font-size="14.00">Complexity Effect</text>
<text xml:space="preserve" text-anchor="middle" x="663" y="-505.41" font-family="Arial" font-size="14.00">Varied 0.1→0.9→0.1</text>
<text xml:space="preserve" text-anchor="middle" x="663" y="-489.66" font-family="Arial" font-size="14.00">Metrics unchanged</text>
<text xml:space="preserve" text-anchor="middle" x="663" y="-473.91" font-family="Arial" font-size="14.00">Effect size: 0.00</text>
</g>
<!-- orig_hyp&#45;&gt;test2 -->
<g id="edge13" class="edge">
<title>orig_hyp&#45;&gt;test2</title>
<path fill="none" stroke="black" stroke-dasharray="5,2" d="M610.5,-627.33C618.18,-611.62 626.05,-595.51 633.28,-580.69"/>
<polygon fill="black" stroke="black" points="636.27,-582.54 637.52,-572.02 629.98,-579.47 636.27,-582.54"/>
<text xml:space="preserve" text-anchor="middle" x="647.43" y="-590.71" font-family="Arial" font-size="10.00">tested by</text>
</g>
<!-- test3 -->
<g id="node17" class="node">
<title>test3</title>
<polygon fill="lightblue" stroke="black" points="905.62,-570.21 752.38,-570.21 752.38,-467.46 905.62,-467.46 905.62,-570.21"/>
<text xml:space="preserve" text-anchor="middle" x="829" y="-552.91" font-family="Arial" font-size="14.00">Test 3:</text>
<text xml:space="preserve" text-anchor="middle" x="829" y="-537.16" font-family="Arial" font-size="14.00">Text Content Effect</text>
<text xml:space="preserve" text-anchor="middle" x="829" y="-505.41" font-family="Arial" font-size="14.00">6&#45;340 char range (50x)</text>
<text xml:space="preserve" text-anchor="middle" x="829" y="-489.66" font-family="Arial" font-size="14.00">No deviation</text>
<text xml:space="preserve" text-anchor="middle" x="829" y="-473.91" font-family="Arial" font-size="14.00">Effect size: 0.00</text>
</g>
<!-- orig_hyp&#45;&gt;test3 -->
<g id="edge14" class="edge">
<title>orig_hyp&#45;&gt;test3</title>
<path fill="none" stroke="black" stroke-dasharray="5,2" d="M644.9,-656.13C678.47,-631.27 717.91,-602.08 751.64,-577.1"/>
<polygon fill="black" stroke="black" points="753.37,-580.18 759.33,-571.42 749.21,-574.55 753.37,-580.18"/>
<text xml:space="preserve" text-anchor="middle" x="750.18" y="-590.71" font-family="Arial" font-size="10.00">tested by</text>
</g>
<!-- test4 -->
<g id="node18" class="node">
<title>test4</title>
<polygon fill="lightblue" stroke="black" points="324.75,-570.21 187.25,-570.21 187.25,-467.46 324.75,-467.46 324.75,-570.21"/>
<text xml:space="preserve" text-anchor="middle" x="256" y="-552.91" font-family="Arial" font-size="14.00">Test 4:</text>
<text xml:space="preserve" text-anchor="middle" x="256" y="-537.16" font-family="Arial" font-size="14.00">Time Elapsed Effect</text>
<text xml:space="preserve" text-anchor="middle" x="256" y="-505.41" font-family="Arial" font-size="14.00">0.3s vs 5.0s (16.7x)</text>
<text xml:space="preserve" text-anchor="middle" x="256" y="-489.66" font-family="Arial" font-size="14.00">Identical changes</text>
<text xml:space="preserve" text-anchor="middle" x="256" y="-473.91" font-family="Arial" font-size="14.00">Effect size: 0.00</text>
</g>
<!-- orig_hyp&#45;&gt;test4 -->
<g id="edge15" class="edge">
<title>orig_hyp&#45;&gt;test4</title>
<path fill="none" stroke="black" stroke-dasharray="5,2" d="M503.36,-644.21C492.15,-634.68 480.18,-625.63 468,-618.21 462.09,-614.61 369.36,-583.24 335.38,-569.93"/>
<polygon fill="black" stroke="black" points="336.8,-566.73 326.23,-566.05 334.07,-573.18 336.8,-566.73"/>
<text xml:space="preserve" text-anchor="middle" x="436.51" y="-590.71" font-family="Arial" font-size="10.00">tested by</text>
</g>
<!-- eisv_sys -->
<g id="node7" class="node">
<title>eisv_sys</title>
<polygon fill="lightblue" stroke="black" points="1724.38,-554.46 1599.62,-554.46 1599.62,-483.21 1724.38,-483.21 1724.38,-554.46"/>
<text xml:space="preserve" text-anchor="middle" x="1662" y="-537.16" font-family="Arial" font-size="14.00">EISV System</text>
<text xml:space="preserve" text-anchor="middle" x="1662" y="-505.41" font-family="Arial" font-size="14.00">Thermodynamic</text>
<text xml:space="preserve" text-anchor="middle" x="1662" y="-489.66" font-family="Arial" font-size="14.00">Governance MCP</text>
</g>
<!-- E -->
<g id="node8" class="node">
<title>E</title>
<polygon fill="lightcyan" stroke="black" points="1672.75,-342.59 1517.25,-342.59 1517.25,-303.09 1672.75,-303.09 1672.75,-342.59"/>
<text xml:space="preserve" text-anchor="middle" x="1595" y="-325.29" font-family="Arial" font-size="14.00">Energy (E)</text>
<text xml:space="preserve" text-anchor="middle" x="1595" y="-309.54" font-family="Arial" font-size="14.00">E(n) = 0.702 + 0.0037n</text>
</g>
<!-- eisv_sys&#45;&gt;E -->
<g id="edge1" class="edge">
<title>eisv_sys&#45;&gt;E</title>
<path fill="none" stroke="black" d="M1675.7,-482.89C1680.6,-465.29 1683.49,-443.85 1677,-425.46 1666.74,-396.41 1644.27,-369.57 1625.44,-350.77"/>
<polygon fill="black" stroke="black" points="1628.08,-348.46 1618.46,-344.03 1623.22,-353.49 1628.08,-348.46"/>
<text xml:space="preserve" text-anchor="middle" x="1705.87" y="-433.96" font-family="Arial" font-size="10.00">implements</text>
</g>
<!-- I -->
<g id="node9" class="node">
<title>I</title>
<polygon fill="lightcyan" stroke="black" points="1841.12,-342.59 1690.88,-342.59 1690.88,-303.09 1841.12,-303.09 1841.12,-342.59"/>
<text xml:space="preserve" text-anchor="middle" x="1766" y="-325.29" font-family="Arial" font-size="14.00">Integrity (I)</text>
<text xml:space="preserve" text-anchor="middle" x="1766" y="-309.54" font-family="Arial" font-size="14.00">I(n) = 0.809 + 0.0093n</text>
</g>
<!-- eisv_sys&#45;&gt;I -->
<g id="edge2" class="edge">
<title>eisv_sys&#45;&gt;I</title>
<path fill="none" stroke="black" d="M1707.35,-483.04C1717.72,-473.18 1727.8,-461.75 1735,-449.46 1752.33,-419.88 1760.02,-380.92 1763.4,-354.28"/>
<polygon fill="black" stroke="black" points="1766.86,-354.81 1764.5,-344.48 1759.9,-354.03 1766.86,-354.81"/>
<text xml:space="preserve" text-anchor="middle" x="1770.81" y="-433.96" font-family="Arial" font-size="10.00">implements</text>
</g>
<!-- S -->
<g id="node10" class="node">
<title>S</title>
<polygon fill="lightcyan" stroke="black" points="1324.5,-342.59 1173.5,-342.59 1173.5,-303.09 1324.5,-303.09 1324.5,-342.59"/>
<text xml:space="preserve" text-anchor="middle" x="1249" y="-325.29" font-family="Arial" font-size="14.00">Entropy (S)</text>
<text xml:space="preserve" text-anchor="middle" x="1249" y="-309.54" font-family="Arial" font-size="14.00">S(n) = 0.181 &#45; 0.0112n</text>
</g>
<!-- eisv_sys&#45;&gt;S -->
<g id="edge3" class="edge">
<title>eisv_sys&#45;&gt;S</title>
<path fill="none" stroke="black" d="M1599.22,-485.04C1582.29,-474.79 1564.58,-462.66 1549.75,-449.46 1539.64,-440.46 1542.88,-431.94 1531,-425.46 1453.82,-383.36 1413.76,-444.45 1334,-407.46 1307.53,-395.19 1284.44,-371.08 1269.04,-351.89"/>
<polygon fill="black" stroke="black" points="1271.92,-349.9 1263.04,-344.14 1266.39,-354.19 1271.92,-349.9"/>
<text xml:space="preserve" text-anchor="middle" x="1574.88" y="-433.96" font-family="Arial" font-size="10.00">implements</text>
</g>
<!-- V -->
<g id="node11" class="node">
<title>V</title>
<polygon fill="lightcyan" stroke="black" points="1499.12,-342.59 1342.88,-342.59 1342.88,-303.09 1499.12,-303.09 1499.12,-342.59"/>
<text xml:space="preserve" text-anchor="middle" x="1421" y="-325.29" font-family="Arial" font-size="14.00">Void (V)</text>
<text xml:space="preserve" text-anchor="middle" x="1421" y="-309.54" font-family="Arial" font-size="14.00">V(n) = &#45;0.003 &#45; 0.0030n</text>
</g>
<!-- eisv_sys&#45;&gt;V -->
<g id="edge4" class="edge">
<title>eisv_sys&#45;&gt;V</title>
<path fill="none" stroke="black" d="M1641.79,-482.72C1627.4,-458.25 1609.65,-429.31 1604,-425.46 1568.12,-401.03 1546.59,-427.33 1508,-407.46 1481.91,-394.03 1458.32,-370.26 1442.31,-351.48"/>
<polygon fill="black" stroke="black" points="1445.12,-349.38 1436.05,-343.9 1439.72,-353.84 1445.12,-349.38"/>
<text xml:space="preserve" text-anchor="middle" x="1646.07" y="-433.96" font-family="Arial" font-size="10.00">implements</text>
</g>
<!-- coherence -->
<g id="node12" class="node">
<title>coherence</title>
<polygon fill="lightcyan" stroke="black" points="1525.12,-114.86 1440.88,-114.86 1440.88,-75.36 1525.12,-75.36 1525.12,-114.86"/>
<text xml:space="preserve" text-anchor="middle" x="1483" y="-97.56" font-family="Arial" font-size="14.00">Coherence</text>
<text xml:space="preserve" text-anchor="middle" x="1483" y="-81.81" font-family="Arial" font-size="14.00">√(E·I &#45; S·V)</text>
</g>
<!-- E&#45;&gt;coherence -->
<g id="edge5" class="edge">
<title>E&#45;&gt;coherence</title>
<path fill="none" stroke="black" d="M1585.45,-302.59C1565.82,-263.03 1520.83,-172.34 1497.55,-125.43"/>
<polygon fill="black" stroke="black" points="1500.78,-124.06 1493.2,-116.66 1494.51,-127.17 1500.78,-124.06"/>
<text xml:space="preserve" text-anchor="middle" x="1568.98" y="-210.71" font-family="Arial" font-size="10.00">combines to</text>
</g>
<!-- I&#45;&gt;coherence -->
<g id="edge6" class="edge">
<title>I&#45;&gt;coherence</title>
<path fill="none" stroke="black" d="M1748.47,-302.67C1732.02,-285.11 1706.36,-258.8 1682,-238.21 1629.32,-193.69 1563.35,-148.44 1522.18,-121.32"/>
<polygon fill="black" stroke="black" points="1524.32,-118.54 1514.04,-115.99 1520.49,-124.4 1524.32,-118.54"/>
<text xml:space="preserve" text-anchor="middle" x="1682.88" y="-210.71" font-family="Arial" font-size="10.00">combines to</text>
</g>
<!-- S&#45;&gt;coherence -->
<g id="edge7" class="edge">
<title>S&#45;&gt;coherence</title>
<path fill="none" stroke="black" d="M1268.16,-302.82C1285.33,-285.81 1311.25,-260.25 1334,-238.21 1375.6,-197.92 1424.22,-151.71 1454.31,-123.21"/>
<polygon fill="black" stroke="black" points="1456.7,-125.77 1461.56,-116.35 1451.89,-120.69 1456.7,-125.77"/>
<text xml:space="preserve" text-anchor="middle" x="1388.99" y="-210.71" font-family="Arial" font-size="10.00">combines to</text>
</g>
<!-- regime -->
<g id="node13" class="node">
<title>regime</title>
<polygon fill="lightcyan" stroke="black" points="1310.62,-130.61 1187.38,-130.61 1187.38,-59.61 1310.62,-59.61 1310.62,-130.61"/>
<text xml:space="preserve" text-anchor="middle" x="1249" y="-113.31" font-family="Arial" font-size="14.00">Regime</text>
<text xml:space="preserve" text-anchor="middle" x="1249" y="-97.56" font-family="Arial" font-size="14.00">EXPLORATION</text>
<text xml:space="preserve" text-anchor="middle" x="1249" y="-81.81" font-family="Arial" font-size="14.00">↓</text>
<text xml:space="preserve" text-anchor="middle" x="1249" y="-66.06" font-family="Arial" font-size="14.00">CONVERGENCE</text>
</g>
<!-- S&#45;&gt;regime -->
<g id="edge9" class="edge">
<title>S&#45;&gt;regime</title>
<path fill="none" stroke="black" d="M1249,-302.59C1249,-267.35 1249,-191.57 1249,-142.27"/>
<polygon fill="black" stroke="black" points="1252.5,-142.47 1249,-132.47 1245.5,-142.47 1252.5,-142.47"/>
<text xml:space="preserve" text-anchor="middle" x="1273" y="-210.71" font-family="Arial" font-size="10.00">determines</text>
</g>
<!-- V&#45;&gt;coherence -->
<g id="edge8" class="edge">
<title>V&#45;&gt;coherence</title>
<path fill="none" stroke="black" d="M1426.29,-302.59C1437.08,-263.28 1461.75,-173.49 1474.7,-126.32"/>
<polygon fill="black" stroke="black" points="1478.05,-127.33 1477.33,-116.76 1471.3,-125.48 1478.05,-127.33"/>
<text xml:space="preserve" text-anchor="middle" x="1478.62" y="-210.71" font-family="Arial" font-size="10.00">combines to</text>
</g>
<!-- main_disc -->
<g id="node19" class="node">
<title>main_disc</title>
<polygon fill="lightgreen" stroke="black" stroke-width="3" points="654.5,-407.46 485.5,-407.46 485.5,-238.21 654.5,-238.21 654.5,-407.46"/>
<text xml:space="preserve" text-anchor="middle" x="570" y="-390.16" font-family="Arial" font-size="14.00">💡 MAIN DISCOVERY</text>
<text xml:space="preserve" text-anchor="middle" x="570" y="-355.41" font-family="Arial" font-size="14.00">EISV metrics driven</text>
<text xml:space="preserve" text-anchor="middle" x="570" y="-339.66" font-family="Arial" font-size="14.00">PURELY by update count</text>
<text xml:space="preserve" text-anchor="middle" x="570" y="-307.91" font-family="Arial" font-size="14.00">Complexity: IGNORED</text>
<text xml:space="preserve" text-anchor="middle" x="570" y="-292.16" font-family="Arial" font-size="14.00">Text content: IGNORED</text>
<text xml:space="preserve" text-anchor="middle" x="570" y="-276.41" font-family="Arial" font-size="14.00">Time: IGNORED</text>
<text xml:space="preserve" text-anchor="middle" x="570" y="-244.66" font-family="Arial" font-size="14.00">Confidence: 99%</text>
</g>
<!-- val_study&#45;&gt;main_disc -->
<g id="edge11" class="edge">
<title>val_study&#45;&gt;main_disc</title>
<path fill="none" stroke="black" d="M450.24,-474.99C462.4,-459.37 476.29,-441.59 489,-425.46 491,-422.93 493.02,-420.36 495.07,-417.77"/>
<polygon fill="black" stroke="black" points="497.69,-420.1 501.15,-410.08 492.2,-415.76 497.69,-420.1"/>
<text xml:space="preserve" text-anchor="middle" x="501" y="-433.96" font-family="Arial" font-size="10.00">led to</text>
</g>
<!-- test1&#45;&gt;E -->
<g id="edge20" class="edge">
<title>test1&#45;&gt;E</title>
<path fill="none" stroke="blue" d="M1223.76,-494.92C1257.94,-484.22 1295.71,-469.35 1327,-449.46 1339.53,-441.5 1336.93,-432.02 1350.25,-425.46 1413.56,-394.3 1444.14,-437.49 1508,-407.46 1534.72,-394.9 1558.39,-370.82 1574.27,-351.72"/>
<polygon fill="blue" stroke="blue" points="1576.94,-353.98 1580.47,-343.99 1571.48,-349.6 1576.94,-353.98"/>
<text xml:space="preserve" text-anchor="middle" x="1389.62" y="-433.96" font-family="Arial" font-size="10.00">identified equation</text>
</g>
<!-- test1&#45;&gt;I -->
<g id="edge21" class="edge">
<title>test1&#45;&gt;I</title>
<path fill="none" stroke="blue" d="M1223.68,-512.33C1286.13,-505 1367.22,-488.12 1429,-449.46 1440.59,-442.21 1436.16,-431.85 1448.25,-425.46 1540.39,-376.81 1587.29,-450.9 1682,-407.46 1708.36,-395.37 1731.16,-371.25 1746.32,-352"/>
<polygon fill="blue" stroke="blue" points="1748.97,-354.31 1752.22,-344.23 1743.39,-350.08 1748.97,-354.31"/>
<text xml:space="preserve" text-anchor="middle" x="1487.62" y="-433.96" font-family="Arial" font-size="10.00">identified equation</text>
</g>
<!-- test1&#45;&gt;S -->
<g id="edge22" class="edge">
<title>test1&#45;&gt;S</title>
<path fill="none" stroke="blue" d="M1132.47,-467.08C1135.16,-453.01 1139.44,-438.13 1146.25,-425.46 1162.5,-395.22 1190.73,-368.27 1213.5,-349.74"/>
<polygon fill="blue" stroke="blue" points="1215.38,-352.71 1221.05,-343.75 1211.04,-347.22 1215.38,-352.71"/>
<text xml:space="preserve" text-anchor="middle" x="1185.62" y="-433.96" font-family="Arial" font-size="10.00">identified equation</text>
</g>
<!-- test1&#45;&gt;V -->
<g id="edge23" class="edge">
<title>test1&#45;&gt;V</title>
<path fill="none" stroke="blue" d="M1202.96,-467.15C1210.56,-461.38 1218.03,-455.42 1225,-449.46 1236.29,-439.81 1235.25,-432.63 1248.25,-425.46 1282.35,-406.65 1299.57,-425.66 1334,-407.46 1359.79,-393.83 1383.26,-370.29 1399.3,-351.66"/>
<polygon fill="blue" stroke="blue" points="1401.87,-354.05 1405.59,-344.13 1396.49,-349.56 1401.87,-354.05"/>
<text xml:space="preserve" text-anchor="middle" x="1287.62" y="-433.96" font-family="Arial" font-size="10.00">identified equation</text>
</g>
<!-- test1&#45;&gt;main_disc -->
<g id="edge16" class="edge">
<title>test1&#45;&gt;main_disc</title>
<path fill="none" stroke="green" stroke-width="2" d="M1032.2,-475.72C1015.45,-467.51 998.39,-458.61 982.75,-449.46 966.86,-440.17 966.28,-431.8 949,-425.46 860.64,-393.05 828.62,-432.88 738,-407.46 714.36,-400.83 690.08,-390.86 667.58,-380.08"/>
<polygon fill="green" stroke="green" stroke-width="2" points="669.23,-376.99 658.71,-375.72 666.14,-383.27 669.23,-376.99"/>
<text xml:space="preserve" text-anchor="middle" x="997.38" y="-433.96" font-family="Arial" font-size="10.00">proves</text>
</g>
<!-- linear_model -->
<g id="node20" class="node">
<title>linear_model</title>
<polygon fill="lightgreen" stroke="black" points="1154.25,-146.61 983.75,-146.61 983.75,-43.61 1154.25,-43.61 1154.25,-146.61"/>
<text xml:space="preserve" text-anchor="middle" x="1069" y="-129.31" font-family="Arial" font-size="14.00">Linear Progression Model</text>
<text xml:space="preserve" text-anchor="middle" x="1069" y="-97.56" font-family="Arial" font-size="14.00">Fixed trajectory</text>
<text xml:space="preserve" text-anchor="middle" x="1069" y="-81.81" font-family="Arial" font-size="14.00">based on update count</text>
<text xml:space="preserve" text-anchor="middle" x="1069" y="-50.06" font-family="Arial" font-size="14.00">Accuracy: 99.9%</text>
</g>
<!-- test1&#45;&gt;linear_model -->
<g id="edge24" class="edge">
<title>test1&#45;&gt;linear_model</title>
<path fill="none" stroke="black" d="M1120.88,-466.97C1110.04,-389.44 1089.4,-241.93 1077.69,-158.21"/>
<polygon fill="black" stroke="black" points="1081.16,-157.75 1076.31,-148.33 1074.23,-158.72 1081.16,-157.75"/>
<text xml:space="preserve" text-anchor="middle" x="1130.57" y="-319.34" font-family="Arial" font-size="10.00">supports</text>
</g>
<!-- method_disc -->
<g id="node21" class="node">
<title>method_disc</title>
<polygon fill="lightgreen" stroke="black" points="910.5,-366.34 747.5,-366.34 747.5,-279.34 910.5,-279.34 910.5,-366.34"/>
<text xml:space="preserve" text-anchor="middle" x="829" y="-349.04" font-family="Arial" font-size="14.00">Methodology Success</text>
<text xml:space="preserve" text-anchor="middle" x="829" y="-317.29" font-family="Arial" font-size="14.00">Controlled isolation tests</text>
<text xml:space="preserve" text-anchor="middle" x="829" y="-301.54" font-family="Arial" font-size="14.00">work for validating</text>
<text xml:space="preserve" text-anchor="middle" x="829" y="-285.79" font-family="Arial" font-size="14.00">AI cognitive systems</text>
</g>
<!-- test1&#45;&gt;method_disc -->
<g id="edge34" class="edge">
<title>test1&#45;&gt;method_disc</title>
<path fill="none" stroke="black" d="M1059.36,-467.03C1052.27,-461.26 1045.28,-455.34 1038.75,-449.46 1027.83,-439.63 1027.66,-434.41 1016,-425.46 986.91,-403.12 952.27,-382.83 920.75,-366.35"/>
<polygon fill="black" stroke="black" points="922.48,-363.3 911.99,-361.83 919.27,-369.53 922.48,-363.3"/>
<text xml:space="preserve" text-anchor="middle" x="1068.38" y="-433.96" font-family="Arial" font-size="10.00">demonstrates</text>
</g>
<!-- test2&#45;&gt;main_disc -->
<g id="edge17" class="edge">
<title>test2&#45;&gt;main_disc</title>
<path fill="none" stroke="green" stroke-width="2" d="M591.22,-476.72C576.85,-466.97 564.88,-457.18 560.75,-449.46 556.13,-440.81 553.41,-431.34 552.07,-421.59"/>
<polygon fill="green" stroke="green" stroke-width="2" points="555.56,-421.38 551.29,-411.69 548.59,-421.93 555.56,-421.38"/>
<text xml:space="preserve" text-anchor="middle" x="575.38" y="-433.96" font-family="Arial" font-size="10.00">proves</text>
</g>
<!-- test2&#45;&gt;main_disc -->
<g id="edge25" class="edge">
<title>test2&#45;&gt;main_disc</title>
<path fill="none" stroke="red" stroke-dasharray="5,2" d="M623.11,-467.04C619.36,-461.26 615.82,-455.34 612.75,-449.46 607.75,-439.89 603.16,-429.61 598.97,-419.2"/>
<polygon fill="red" stroke="red" points="602.36,-418.25 595.48,-410.19 595.83,-420.77 602.36,-418.25"/>
<text xml:space="preserve" text-anchor="middle" x="640.88" y="-439.96" font-family="Arial" font-size="10.00">complexity</text>
<text xml:space="preserve" text-anchor="middle" x="640.88" y="-427.96" font-family="Arial" font-size="10.00">has no effect</text>
</g>
<!-- test2&#45;&gt;method_disc -->
<g id="edge35" class="edge">
<title>test2&#45;&gt;method_disc</title>
<path fill="none" stroke="black" d="M672.55,-467.23C676.84,-452.86 683,-437.79 691.75,-425.46 705.83,-405.64 724.98,-388.09 744.49,-373.38"/>
<polygon fill="black" stroke="black" points="746.54,-376.23 752.55,-367.51 742.41,-370.57 746.54,-376.23"/>
<text xml:space="preserve" text-anchor="middle" x="721.38" y="-433.96" font-family="Arial" font-size="10.00">demonstrates</text>
</g>
<!-- test3&#45;&gt;main_disc -->
<g id="edge18" class="edge">
<title>test3&#45;&gt;main_disc</title>
<path fill="none" stroke="green" stroke-width="2" d="M787.45,-467.1C771.3,-447.68 755.57,-429.24 751,-425.46 725.62,-404.49 695.3,-385.54 666.79,-369.84"/>
<polygon fill="green" stroke="green" stroke-width="2" points="668.68,-366.88 658.22,-365.21 665.35,-373.04 668.68,-366.88"/>
<text xml:space="preserve" text-anchor="middle" x="787.04" y="-433.96" font-family="Arial" font-size="10.00">proves</text>
</g>
<!-- test3&#45;&gt;main_disc -->
<g id="edge26" class="edge">
<title>test3&#45;&gt;main_disc</title>
<path fill="none" stroke="red" stroke-dasharray="5,2" d="M824.39,-467.44C820.69,-452.23 814.22,-436.63 803,-425.46 781.76,-404.31 765.99,-418.19 738,-407.46 714.15,-398.32 689.15,-386.94 665.94,-375.54"/>
<polygon fill="red" stroke="red" points="667.64,-372.47 657.13,-371.16 664.52,-378.74 667.64,-372.47"/>
<text xml:space="preserve" text-anchor="middle" x="846.48" y="-439.96" font-family="Arial" font-size="10.00">content</text>
<text xml:space="preserve" text-anchor="middle" x="846.48" y="-427.96" font-family="Arial" font-size="10.00">has no effect</text>
</g>
<!-- test3&#45;&gt;method_disc -->
<g id="edge36" class="edge">
<title>test3&#45;&gt;method_disc</title>
<path fill="none" stroke="black" d="M873.67,-467.29C877.03,-461.56 879.91,-455.57 882,-449.46 890.38,-424.98 881.94,-398.5 869.51,-376.19"/>
<polygon fill="black" stroke="black" points="872.68,-374.67 864.55,-367.88 866.67,-378.26 872.68,-374.67"/>
<text xml:space="preserve" text-anchor="middle" x="914.99" y="-433.96" font-family="Arial" font-size="10.00">demonstrates</text>
</g>
<!-- test4&#45;&gt;main_disc -->
<g id="edge19" class="edge">
<title>test4&#45;&gt;main_disc</title>
<path fill="none" stroke="green" stroke-width="2" d="M307.22,-467.02C327.08,-447.59 346.37,-429.15 351.75,-425.46 388.75,-400.06 433.12,-378.08 472.16,-361.13"/>
<polygon fill="green" stroke="green" stroke-width="2" points="473.48,-364.37 481.3,-357.22 470.73,-357.93 473.48,-364.37"/>
<text xml:space="preserve" text-anchor="middle" x="366.38" y="-433.96" font-family="Arial" font-size="10.00">proves</text>
</g>
<!-- test4&#45;&gt;main_disc -->
<g id="edge27" class="edge">
<title>test4&#45;&gt;main_disc</title>
<path fill="none" stroke="red" stroke-dasharray="5,2" d="M251.4,-467.4C252.5,-452.54 256.36,-437.15 265.75,-425.46 315.47,-363.57 404.17,-339.09 473.01,-329.56"/>
<polygon fill="red" stroke="red" points="473.35,-333.04 482.82,-328.29 472.45,-326.1 473.35,-333.04"/>
<text xml:space="preserve" text-anchor="middle" x="293.88" y="-439.96" font-family="Arial" font-size="10.00">time</text>
<text xml:space="preserve" text-anchor="middle" x="293.88" y="-427.96" font-family="Arial" font-size="10.00">has no effect</text>
</g>
<!-- test4&#45;&gt;method_disc -->
<g id="edge37" class="edge">
<title>test4&#45;&gt;method_disc</title>
<path fill="none" stroke="black" d="M324.88,-472.3C327.93,-470.61 330.98,-468.99 334,-467.46 353.95,-457.34 361.91,-461.12 381,-449.46 394.63,-441.13 393.04,-431.69 407.75,-425.46 512.46,-381.09 553.35,-437.63 663,-407.46 692.38,-399.38 722.68,-385.88 749.21,-372.06"/>
<polygon fill="black" stroke="black" points="750.66,-375.25 757.85,-367.47 747.38,-369.07 750.66,-375.25"/>
<text xml:space="preserve" text-anchor="middle" x="437.38" y="-433.96" font-family="Arial" font-size="10.00">demonstrates</text>
</g>
<!-- main_disc&#45;&gt;orig_hyp -->
<g id="edge38" class="edge">
<title>main_disc&#45;&gt;orig_hyp</title>
<path fill="none" stroke="red" stroke-width="3" d="M546.82,-408.71C542.53,-427.89 538.71,-448.26 536.5,-467.46 531.28,-512.83 531.38,-524.83 536.5,-570.21 537.86,-582.27 539.85,-594.8 542.19,-607.2"/>
<polygon fill="red" stroke="red" stroke-width="3" points="538.69,-607.53 544.08,-616.65 545.55,-606.16 538.69,-607.53"/>
<text xml:space="preserve" text-anchor="middle" x="559.75" y="-515.34" font-family="Arial" font-size="10.00">REJECTS</text>
</g>
<!-- main_disc&#45;&gt;linear_model -->
<g id="edge28" class="edge">
<title>main_disc&#45;&gt;linear_model</title>
<path fill="none" stroke="black" d="M655.8,-273.87C681.64,-260.88 710.45,-247.78 738,-238.21 836.23,-204.1 874.57,-237.85 967,-190.21 984.71,-181.08 1001.62,-168.04 1016.4,-154.55"/>
<polygon fill="black" stroke="black" points="1018.4,-157.48 1023.28,-148.07 1013.6,-152.38 1018.4,-157.48"/>
<text xml:space="preserve" text-anchor="middle" x="939.68" y="-210.71" font-family="Arial" font-size="10.00">explains</text>
</g>
<!-- meta_cog -->
<g id="node22" class="node">
<title>meta_cog</title>
<ellipse fill="salmon" stroke="black" cx="246" cy="-95.11" rx="94.58" ry="95.11"/>
<text xml:space="preserve" text-anchor="middle" x="246" y="-145.06" font-family="Arial" font-size="14.00">Meta&#45;Cognitive AI</text>
<text xml:space="preserve" text-anchor="middle" x="246" y="-129.31" font-family="Arial" font-size="14.00">Use Case</text>
<text xml:space="preserve" text-anchor="middle" x="246" y="-97.56" font-family="Arial" font-size="14.00">NOT VIABLE</text>
<text xml:space="preserve" text-anchor="middle" x="246" y="-81.81" font-family="Arial" font-size="14.00">with current system</text>
<text xml:space="preserve" text-anchor="middle" x="246" y="-50.06" font-family="Arial" font-size="14.00">Metrics don&#39;t reflect</text>
<text xml:space="preserve" text-anchor="middle" x="246" y="-34.31" font-family="Arial" font-size="14.00">cognitive state</text>
</g>
<!-- main_disc&#45;&gt;meta_cog -->
<g id="edge29" class="edge">
<title>main_disc&#45;&gt;meta_cog</title>
<path fill="none" stroke="red" stroke-width="2" d="M484.19,-277.35C441.24,-253.62 389.31,-222.67 346,-190.21 338.15,-184.33 330.25,-177.91 322.5,-171.28"/>
<polygon fill="red" stroke="red" stroke-width="2" points="324.9,-168.73 315.07,-164.77 320.29,-173.99 324.9,-168.73"/>
<text xml:space="preserve" text-anchor="middle" x="409.89" y="-210.71" font-family="Arial" font-size="10.00">invalidates</text>
</g>
<!-- opt1 -->
<g id="node23" class="node">
<title>opt1</title>
<polygon fill="lavender" stroke="black" points="471.75,-154.48 358.25,-154.48 358.25,-35.73 471.75,-35.73 471.75,-154.48"/>
<text xml:space="preserve" text-anchor="middle" x="415" y="-137.18" font-family="Arial" font-size="14.00">Option 1: FIX</text>
<text xml:space="preserve" text-anchor="middle" x="415" y="-105.43" font-family="Arial" font-size="14.00">Wire complexity</text>
<text xml:space="preserve" text-anchor="middle" x="415" y="-89.68" font-family="Arial" font-size="14.00">into dynamics</text>
<text xml:space="preserve" text-anchor="middle" x="415" y="-57.93" font-family="Arial" font-size="14.00">Effort: HIGH</text>
<text xml:space="preserve" text-anchor="middle" x="415" y="-42.18" font-family="Arial" font-size="14.00">Timeline: weeks</text>
</g>
<!-- main_disc&#45;&gt;opt1 -->
<g id="edge30" class="edge">
<title>main_disc&#45;&gt;opt1</title>
<path fill="none" stroke="black" d="M511.62,-236.82C495.1,-212.76 477.35,-186.91 461.62,-164.01"/>
<polygon fill="black" stroke="black" points="464.65,-162.23 456.1,-155.97 458.88,-166.19 464.65,-162.23"/>
<text xml:space="preserve" text-anchor="middle" x="517.02" y="-210.71" font-family="Arial" font-size="10.00">suggests</text>
</g>
<!-- opt2 -->
<g id="node24" class="node">
<title>opt2</title>
<polygon fill="lavender" stroke="black" points="650.38,-154.48 489.62,-154.48 489.62,-35.73 650.38,-35.73 650.38,-154.48"/>
<text xml:space="preserve" text-anchor="middle" x="570" y="-137.18" font-family="Arial" font-size="14.00">Option 2: REPURPOSE</text>
<text xml:space="preserve" text-anchor="middle" x="570" y="-105.43" font-family="Arial" font-size="14.00">Agent Experience</text>
<text xml:space="preserve" text-anchor="middle" x="570" y="-89.68" font-family="Arial" font-size="14.00">Tracker</text>
<text xml:space="preserve" text-anchor="middle" x="570" y="-57.93" font-family="Arial" font-size="14.00">Effort: LOW</text>
<text xml:space="preserve" text-anchor="middle" x="570" y="-42.18" font-family="Arial" font-size="14.00">Timeline: days</text>
</g>
<!-- main_disc&#45;&gt;opt2 -->
<g id="edge31" class="edge">
<title>main_disc&#45;&gt;opt2</title>
<path fill="none" stroke="black" d="M570,-236.82C570,-213.51 570,-188.52 570,-166.15"/>
<polygon fill="black" stroke="black" points="573.5,-166.23 570,-156.23 566.5,-166.23 573.5,-166.23"/>
<text xml:space="preserve" text-anchor="middle" x="589.88" y="-210.71" font-family="Arial" font-size="10.00">suggests</text>
</g>
<!-- opt3 -->
<g id="node25" class="node">
<title>opt3</title>
<polygon fill="lavender" stroke="black" points="795.12,-154.48 668.88,-154.48 668.88,-35.73 795.12,-35.73 795.12,-154.48"/>
<text xml:space="preserve" text-anchor="middle" x="732" y="-137.18" font-family="Arial" font-size="14.00">Option 3: HYBRID</text>
<text xml:space="preserve" text-anchor="middle" x="732" y="-105.43" font-family="Arial" font-size="14.00">Add text analysis</text>
<text xml:space="preserve" text-anchor="middle" x="732" y="-89.68" font-family="Arial" font-size="14.00">layer</text>
<text xml:space="preserve" text-anchor="middle" x="732" y="-57.93" font-family="Arial" font-size="14.00">Effort: MEDIUM</text>
<text xml:space="preserve" text-anchor="middle" x="732" y="-42.18" font-family="Arial" font-size="14.00">Timeline: weeks</text>
</g>
<!-- main_disc&#45;&gt;opt3 -->
<g id="edge32" class="edge">
<title>main_disc&#45;&gt;opt3</title>
<path fill="none" stroke="black" d="M631.01,-236.82C648.28,-212.76 666.83,-186.91 683.27,-164.01"/>
<polygon fill="black" stroke="black" points="686.07,-166.11 689.05,-155.95 680.38,-162.03 686.07,-166.11"/>
<text xml:space="preserve" text-anchor="middle" x="670.88" y="-210.71" font-family="Arial" font-size="10.00">suggests</text>
</g>
<!-- opt4 -->
<g id="node26" class="node">
<title>opt4</title>
<polygon fill="lavender" stroke="black" points="955,-154.48 813,-154.48 813,-35.73 955,-35.73 955,-154.48"/>
<text xml:space="preserve" text-anchor="middle" x="884" y="-137.18" font-family="Arial" font-size="14.00">Option 4: ABANDON</text>
<text xml:space="preserve" text-anchor="middle" x="884" y="-105.43" font-family="Arial" font-size="14.00">Start fresh</text>
<text xml:space="preserve" text-anchor="middle" x="884" y="-89.68" font-family="Arial" font-size="14.00">validation&#45;first</text>
<text xml:space="preserve" text-anchor="middle" x="884" y="-57.93" font-family="Arial" font-size="14.00">Effort: RESTART</text>
<text xml:space="preserve" text-anchor="middle" x="884" y="-42.18" font-family="Arial" font-size="14.00">Timeline: months</text>
</g>
<!-- main_disc&#45;&gt;opt4 -->
<g id="edge33" class="edge">
<title>main_disc&#45;&gt;opt4</title>
<path fill="none" stroke="black" d="M655.79,-282.82C702.2,-259.52 759.04,-227.27 804,-190.21 813.73,-182.19 823.2,-172.9 832.04,-163.33"/>
<polygon fill="black" stroke="black" points="834.53,-165.79 838.61,-156.01 829.32,-161.11 834.53,-165.79"/>
<text xml:space="preserve" text-anchor="middle" x="794.95" y="-210.71" font-family="Arial" font-size="10.00">suggests</text>
</g>
</g>
</svg>
